{
  "source": "C:\\Users\\Peter\\Desktop\\stuff\\MIUN\\quantitative_research\\video_compression\\videos\\BVI-HD\\BVI-HD_CDVL_videos\\ORIG\\BricksLeaves_1920x1080_60fps.mp4",
  "output": "C:\\Users\\Peter\\Desktop\\stuff\\MIUN\\quantitative_research\\video_compression\\compressed_videos\\BVI-HD\\av1\\1.5\\BricksLeaves_1920x1080_60fps_av1.mkv",
  "codec": "av1",
  "ok": "Input #0, mov,mp4,m4a,3gp,3g2,mj2, from 'C:\\Users\\Peter\\Desktop\\stuff\\MIUN\\quantitative_research\\video_compression\\videos\\BVI-HD\\BVI-HD_CDVL_videos\\ORIG\\BricksLeaves_1920x1080_60fps.mp4':\n  Metadata:\n    major_brand     : isom\n    minor_version   : 512\n    compatible_brands: isomiso2avc1mp41\n    encoder         : Lavf54.28.101\n  Duration: 00:00:05.00, start: 0.000000, bitrate: 524627 kb/s\n  Stream #0:0[0x1](und): Video: h264 (High 4:4:4 Predictive) (avc1 / 0x31637661), yuv420p(progressive), 1920x1080, 524622 kb/s, 60 fps, 60 tbr, 60 tbn (default)\n    Metadata:\n      handler_name    : VideoHandler\n      vendor_id       : [0][0][0][0]\n[out#0/matroska @ 0000020ef4ce90c0] Codec AVOption b:a (set bitrate (in bits/s)) has not been used for any stream. The most likely reason is either wrong type (e.g. a video option with no video streams) or that it is a private option of some decoder which was not actually used for any stream.\nStream mapping:\n  Stream #0:0 -> #0:0 (h264 (native) -> av1 (libsvtav1))\nPress [q] to stop, [?] for help\nSvt[info]: -------------------------------------------\nSvt[info]: SVT [version]:\tSVT-AV1 Encoder Lib v3.1.0-19-g6ecfe8ec\nSvt[info]: SVT [build]  :\tGCC 15.2.0\t 64 bit\nSvt[info]: LIB Build date: Aug 17 2025 11:37:13\nSvt[info]: -------------------------------------------\nSvt[info]: Level of Parallelism: 5\nSvt[info]: Number of PPCS 93\nSvt[info]: [asm level on system : up to avx2]\nSvt[info]: [asm level selected : up to avx2]\nSvt[info]: -------------------------------------------\nSvt[info]: SVT [config]: main profile\ttier (auto)\tlevel (auto)\nSvt[info]: SVT [config]: width / height / fps numerator / fps denominator \t\t: 1920 / 1080 / 60 / 1\nSvt[info]: SVT [config]: bit-depth / color format \t\t\t\t\t: 8 / YUV420\nSvt[info]: SVT [config]: preset / tune / pred struct \t\t\t\t\t: 4 / PSNR / random access\nSvt[info]: SVT [config]: gop size / mini-gop size / key-frame type \t\t\t: 321 / 16 / key frame\nSvt[info]: SVT [config]: BRC mode / target bitrate (kbps)\t\t\t\t: VBR / 1500 \nSvt[info]: SVT [config]: AQ mode / Variance Boost \t\t\t\t\t: 2 / 0\nSvt[info]: SVT [config]: sharpness / luminance-based QP bias \t\t\t\t: 0 / 0\nSvt[info]: SVT [config]: QP scale compress strength \t\t\t\t\t: 0\nSvt[info]: -------------------------------------------\nOutput #0, matroska, to 'C:\\Users\\Peter\\Desktop\\stuff\\MIUN\\quantitative_research\\video_compression\\compressed_videos\\BVI-HD\\av1\\1.5\\BricksLeaves_1920x1080_60fps_av1.mkv':\n  Metadata:\n    major_brand     : isom\n    minor_version   : 512\n    compatible_brands: isomiso2avc1mp41\n    encoder         : Lavf62.3.100\n  Stream #0:0(und): Video: av1 (AV01 / 0x31305641), yuv420p(tv, progressive), 1920x1080, q=2-31, 1500 kb/s, 60 fps, 1k tbn (default)\n    Metadata:\n      encoder         : Lavc62.11.100 libsvtav1\n      handler_name    : VideoHandler\n      vendor_id       : [0][0][0][0]\n    Side data:\n      cpb: bitrate max/min/avg: 0/0/1500000 buffer size: 1500000 vbv_delay: N/A\nframe=    0 fps=0.0 q=0.0 size=       0KiB time=N/A bitrate=N/A speed=N/A elapsed=0:00:01.02    \nframe=    0 fps=0.0 q=0.0 size=       0KiB time=N/A bitrate=N/A speed=N/A elapsed=0:00:01.55    \nframe=    0 fps=0.0 q=0.0 size=       0KiB time=N/A bitrate=N/A speed=N/A elapsed=0:00:02.08    \nframe=    0 fps=0.0 q=0.0 size=       0KiB time=N/A bitrate=N/A speed=N/A elapsed=0:00:02.65    \nframe=    0 fps=0.0 q=0.0 size=       0KiB time=N/A bitrate=N/A speed=N/A elapsed=0:00:03.17    \nframe=    0 fps=0.0 q=0.0 size=       0KiB time=N/A bitrate=N/A speed=N/A elapsed=0:00:03.71    \nframe=    0 fps=0.0 q=0.0 size=       0KiB time=N/A bitrate=N/A speed=N/A elapsed=0:00:04.27    \nframe=    0 fps=0.0 q=0.0 size=       0KiB time=N/A bitrate=N/A speed=N/A elapsed=0:00:04.81    \nframe=    0 fps=0.0 q=0.0 size=       0KiB time=N/A bitrate=N/A speed=N/A elapsed=0:00:05.32    \nframe=    0 fps=0.0 q=0.0 size=       0KiB time=N/A bitrate=N/A speed=N/A elapsed=0:00:05.84    \nframe=    0 fps=0.0 q=0.0 size=       0KiB time=N/A bitrate=N/A speed=N/A elapsed=0:00:06.35    \nframe=    0 fps=0.0 q=0.0 size=       0KiB time=N/A bitrate=N/A speed=N/A elapsed=0:00:06.90    \nframe=    0 fps=0.0 q=0.0 size=       0KiB time=N/A bitrate=N/A speed=N/A elapsed=0:00:07.42    \nframe=    0 fps=0.0 q=0.0 size=       0KiB time=N/A bitrate=N/A speed=N/A elapsed=0:00:07.94    \nframe=    0 fps=0.0 q=0.0 size=       0KiB time=N/A bitrate=N/A speed=N/A elapsed=0:00:08.45    \nframe=    0 fps=0.0 q=0.0 size=       0KiB time=N/A bitrate=N/A speed=N/A elapsed=0:00:08.97    \nframe=    0 fps=0.0 q=0.0 size=       0KiB time=N/A bitrate=N/A speed=N/A elapsed=0:00:09.49    \nframe=    0 fps=0.0 q=0.0 size=       0KiB time=N/A bitrate=N/A speed=N/A elapsed=0:00:09.99    \nframe=    0 fps=0.0 q=0.0 size=       0KiB time=N/A bitrate=N/A speed=N/A elapsed=0:00:10.51    \nframe=    0 fps=0.0 q=0.0 size=       0KiB time=N/A bitrate=N/A speed=N/A elapsed=0:00:11.02    \nframe=    0 fps=0.0 q=0.0 size=       0KiB time=N/A bitrate=N/A speed=N/A elapsed=0:00:11.56    \nframe=    0 fps=0.0 q=0.0 size=       0KiB time=N/A bitrate=N/A speed=N/A elapsed=0:00:12.08    \nframe=    1 fps=0.1 q=30.0 size=       1KiB time=00:00:00.00 bitrate=N/A speed=   0x elapsed=0:00:12.60    \nframe=    6 fps=0.5 q=58.0 size=       1KiB time=00:00:00.08 bitrate=  68.4kbits/s speed=0.00635x elapsed=0:00:13.12    \nframe=   12 fps=0.9 q=58.0 size=       1KiB time=00:00:00.18 bitrate=  31.1kbits/s speed=0.0134x elapsed=0:00:13.64    \nframe=   22 fps=1.6 q=56.0 size=       1KiB time=00:00:00.35 bitrate=  16.3kbits/s speed=0.0247x elapsed=0:00:14.15    \nframe=   28 fps=1.9 q=56.0 size=       1KiB time=00:00:00.45 bitrate=  12.7kbits/s speed=0.0307x elapsed=0:00:14.67    \nframe=   38 fps=2.5 q=57.0 size=       1KiB time=00:00:00.61 bitrate=   9.2kbits/s speed=0.0406x elapsed=0:00:15.19    \nframe=   43 fps=2.7 q=56.0 size=       1KiB time=00:00:00.70 bitrate=   8.1kbits/s speed=0.0445x elapsed=0:00:15.72    \nframe=   52 fps=3.2 q=58.0 size=       1KiB time=00:00:00.85 bitrate=   6.7kbits/s speed=0.0523x elapsed=0:00:16.24    \nframe=   58 fps=3.5 q=59.0 size=       1KiB time=00:00:00.95 bitrate=   6.0kbits/s speed=0.0566x elapsed=0:00:16.77    \nframe=   67 fps=3.9 q=57.0 size=       1KiB time=00:00:01.10 bitrate=   5.2kbits/s speed=0.0635x elapsed=0:00:17.31    \nframe=   73 fps=4.1 q=51.0 size=       1KiB time=00:00:01.20 bitrate=   4.7kbits/s speed=0.0673x elapsed=0:00:17.83    \nframe=   79 fps=4.3 q=56.0 size=       1KiB time=00:00:01.30 bitrate=   4.4kbits/s speed=0.0708x elapsed=0:00:18.35    \nframe=   87 fps=4.6 q=54.0 size=       1KiB time=00:00:01.43 bitrate=   4.0kbits/s speed=0.0759x elapsed=0:00:18.89    \nframe=   94 fps=4.8 q=59.0 size=       1KiB time=00:00:01.53 bitrate=   3.7kbits/s speed=0.0789x elapsed=0:00:19.42    \nframe=  102 fps=5.1 q=59.0 size=       1KiB time=00:00:01.68 bitrate=   3.4kbits/s speed=0.0844x elapsed=0:00:19.94    \nframe=  107 fps=5.2 q=56.0 size=       1KiB time=00:00:01.76 bitrate=   3.2kbits/s speed=0.0863x elapsed=0:00:20.46    \nframe=  116 fps=5.5 q=60.0 size=       1KiB time=00:00:01.91 bitrate=   3.0kbits/s speed=0.0914x elapsed=0:00:20.97    \nframe=  123 fps=5.7 q=57.0 size=       1KiB time=00:00:02.03 bitrate=   2.8kbits/s speed=0.0946x elapsed=0:00:21.49    \nframe=  132 fps=6.0 q=60.0 size=       1KiB time=00:00:02.18 bitrate=   2.6kbits/s speed=0.0992x elapsed=0:00:22.02    \nframe=  139 fps=6.2 q=57.0 size=       1KiB time=00:00:02.28 bitrate=   2.5kbits/s speed=0.101x elapsed=0:00:22.54    \nframe=  147 fps=6.4 q=59.0 size=       1KiB time=00:00:02.43 bitrate=   2.3kbits/s speed=0.105x elapsed=0:00:23.09    \nframe=  155 fps=6.6 q=57.0 size=       1KiB time=00:00:02.56 bitrate=   2.2kbits/s speed=0.109x elapsed=0:00:23.60    \nframe=  162 fps=6.7 q=59.0 size=       1KiB time=00:00:02.68 bitrate=   2.1kbits/s speed=0.111x elapsed=0:00:24.12    \nframe=  168 fps=6.8 q=59.0 size=       1KiB time=00:00:02.78 bitrate=   2.0kbits/s speed=0.113x elapsed=0:00:24.64    \nframe=  175 fps=7.0 q=56.0 size=       1KiB time=00:00:02.90 bitrate=   2.0kbits/s speed=0.115x elapsed=0:00:25.17    \nframe=  183 fps=7.1 q=56.0 size=       1KiB time=00:00:03.03 bitrate=   1.9kbits/s speed=0.118x elapsed=0:00:25.72    \nframe=  193 fps=7.3 q=44.0 size=       1KiB time=00:00:03.20 bitrate=   1.8kbits/s speed=0.122x elapsed=0:00:26.29    \nframe=  205 fps=7.6 q=58.0 size=       1KiB time=00:00:03.40 bitrate=   1.7kbits/s speed=0.127x elapsed=0:00:26.80    \nframe=  217 fps=7.9 q=58.0 size=       1KiB time=00:00:03.60 bitrate=   1.6kbits/s speed=0.132x elapsed=0:00:27.34    \nframe=  233 fps=8.4 q=61.0 size=       1KiB time=00:00:03.86 bitrate=   1.5kbits/s speed=0.139x elapsed=0:00:27.85    \nframe=  245 fps=8.6 q=63.0 size=       1KiB time=00:00:04.06 bitrate=   1.4kbits/s speed=0.143x elapsed=0:00:28.38    \nframe=  253 fps=8.8 q=62.0 size=       1KiB time=00:00:04.20 bitrate=   1.4kbits/s speed=0.145x elapsed=0:00:28.88    \nframe=  265 fps=9.0 q=62.0 size=       1KiB time=00:00:04.40 bitrate=   1.3kbits/s speed=0.15x elapsed=0:00:29.40    \nframe=  271 fps=9.1 q=63.0 size=       1KiB time=00:00:04.50 bitrate=   1.3kbits/s speed=0.15x elapsed=0:00:29.92    \nframe=  281 fps=9.2 q=63.0 size=       1KiB time=00:00:04.66 bitrate=   1.2kbits/s speed=0.153x elapsed=0:00:30.44    \n[out#0/matroska @ 0000020ef4ce90c0] video:896KiB audio:0KiB subtitle:0KiB other streams:0KiB global headers:0KiB muxing overhead: 0.230952%\nframe=  300 fps=9.7 q=63.0 Lsize=     898KiB time=00:00:04.98 bitrate=1477.0kbits/s speed=0.161x elapsed=0:00:30.90    \n",
  "seconds": 31.41605019569397,
  "probe_out": {}
}